<?xml version="1.0" encoding="UTF-8" standalone="no"?><!DOCTYPE svg PUBLIC "-//W3C//DTD SVG 1.1//EN" "http://www.w3.org/Graphics/SVG/1.1/DTD/svg11.dtd"><svg width="100%" height="100%" viewBox="0 0 67 67" version="1.1" xmlns="http://www.w3.org/2000/svg" xmlns:xlink="http://www.w3.org/1999/xlink" xml:space="preserve" xmlns:serif="http://www.serif.com/" style="fill-rule:evenodd;clip-rule:evenodd;stroke-linejoin:round;stroke-miterlimit:2;"><path d="M6.858,19.358c0.391,-0.391 0.922,-0.612 1.475,-0.612c0.554,0 1.085,0.221 1.475,0.612l23.525,23.53l23.525,-23.53c0.391,-0.391 0.922,-0.611 1.475,-0.611c1.145,0 2.086,0.942 2.086,2.086c0,0.553 -0.22,1.084 -0.611,1.475l-25,25c-0.39,0.392 -0.921,0.612 -1.475,0.612c-0.553,0 -1.084,-0.22 -1.475,-0.612l-25,-25c-0.391,-0.39 -0.612,-0.921 -0.612,-1.475c0,-0.553 0.221,-1.084 0.612,-1.475Z" style="fill:#08c9ff;"/></svg>